Coordinates
version=1
nRows=8
nColumns=40
inDegrees=yes

Units are S.I. units (second, meters, Newtons, ...)
Angles are in degrees.

endheader
time	pelvis_tilt	pelvis_list	pelvis_rotation	pelvis_tx	pelvis_ty	pelvis_tz	hip_flexion_r	hip_adduction_r	hip_rotation_r	knee_angle_r	knee_angle_r_beta	ankle_angle_r	subtalar_angle_r	mtp_angle_r	hip_flexion_l	hip_adduction_l	hip_rotation_l	knee_angle_l	knee_angle_l_beta	ankle_angle_l	subtalar_angle_l	mtp_angle_l	lumbar_extension	lumbar_bending	lumbar_rotation	arm_flex_r	arm_add_r	arm_rot_r	elbow_flex_r	pro_sup_r	wrist_flex_r	wrist_dev_r	arm_flex_l	arm_add_l	arm_rot_l	elbow_flex_l	pro_sup_l	wrist_flex_l	wrist_dev_l
     40.73500000	     -5.83326841	     -4.63611919	      5.86999739	      0.90288789	      0.91919293	      0.48184837	      0.62447530	      0.73623249	    -12.64506568	     17.54555155	     17.54555155	     17.94186487	     -3.52502789	     -1.30117875	     28.01896730	     -5.57857727	      2.89703060	     25.38713443	     25.38713443	      7.34795346	    -10.16974150	     -0.57592261	     -7.62887540	      1.80297100	      3.02341361	     55.11588742	    -17.54457113	     -9.07346451	     90.24128750	     44.61404862	      0.00000000	      0.00000000	     -2.82442434	     -9.46103298	      2.48960692	     32.33978489	     45.00965863	      0.00000000	      0.00000000
     40.75400000	     -5.94056679	     -4.48729628	      5.52800710	      0.90289359	      0.91996930	      0.47843801	      1.24567533	      0.12843889	    -12.24217096	     19.18985671	     19.18985671	     17.52866029	     -4.25410821	     -2.00954306	     27.54287575	     -5.29418671	      2.67582346	     25.26268563	     25.26268563	      7.79540960	    -10.41676141	     -0.33965914	     -7.53609357	      1.58769294	      3.16099920	     54.33397089	    -17.40255206	     -9.01061878	     90.94963501	     44.60092014	      0.00000000	      0.00000000	     -1.59735608	     -9.62222959	      1.42857852	     33.55456718	     45.18808573	      0.00000000	      0.00000000
     40.77300000	     -5.81003888	     -4.66270726	      5.33697221	      0.90325008	      0.92124384	      0.47500234	      1.14443134	     -0.00931536	    -12.16712229	     19.89937305	     19.89937305	     16.98580779	     -4.31120687	     -2.05797372	     26.89711226	     -5.33476592	      2.63274719	     25.20233498	     25.20233498	      8.19366377	    -10.51467740	     -0.41111597	     -7.61570960	      1.80069492	      2.96090871	     53.61213397	    -16.89228126	     -8.77651178	     90.84529020	     44.59516748	      0.00000000	      0.00000000	     -0.12018280	     -9.89779425	      1.26947413	     34.13739393	     45.23314089	      0.00000000	      0.00000000
     40.79200000	     -5.68669548	     -4.50174568	      5.05898769	      0.90361184	      0.92243782	      0.47134342	      1.37372566	     -0.61028825	    -11.87962891	     21.30157857	     21.30157857	     16.56365127	     -4.73755970	     -2.56551368	     26.06864424	     -5.04543134	      2.32625479	     24.91711418	     24.91711418	      8.53481006	    -10.58505240	     -0.37875162	     -7.68646789	      1.71691531	      2.89114951	     52.45981320	    -16.49736790	     -8.66412780	     90.70558049	     44.59654807	      0.00000000	      0.00000000	      1.26207269	    -10.11088797	      0.87573075	     34.82170227	     45.30980348	      0.00000000	      0.00000000
     40.81100000	     -5.62936587	     -4.47244575	      4.85526409	      0.90404232	      0.92354303	      0.46767412	      1.54210609	     -1.05321145	    -11.71266799	     22.41812340	     22.41812340	     15.99415347	     -5.01294421	     -3.16609143	     25.36884293	     -4.84416122	      2.16924529	     24.67434264	     24.67434264	      8.78384230	    -10.73436304	     -0.31890453	     -7.61731349	      1.76141366	      2.78101669	     51.03248375	    -16.12317258	     -8.65700381	     90.40600544	     44.60618492	      0.00000000	      0.00000000	      2.72501602	    -10.32082761	      0.47047573	     35.46759197	     45.38827912	      0.00000000	      0.00000000
     40.83000000	     -5.61900452	     -4.44862650	      4.65240667	      0.90451340	      0.92456802	      0.46390050	      1.69122238	     -1.51545726	    -11.63728894	     23.37464441	     23.37464441	     15.11314121	     -5.18071203	     -4.54016872	     24.69230481	     -4.60103294	      2.14835206	     24.37916885	     24.37916885	      8.95240631	    -11.03462277	     -0.14835310	     -7.51067217	      1.82173932	      2.81059053	     49.35905674	    -15.86036584	     -9.06698730	     89.90504203	     44.64183556	      0.00000000	      0.00000000	      4.35419874	    -10.43138216	     -0.16642358	     35.99307459	     45.50138671	      0.00000000	      0.00000000
     40.84900000	     -5.44789825	     -4.63148536	      4.48488156	      0.90525168	      0.92573159	      0.46017789	      1.50949143	     -1.69983419	    -11.63626173	     24.04753826	     24.04753826	     14.47095414	     -5.14812329	     -4.93096145	     23.98270531	     -4.61464196	      2.07975950	     24.32134377	     24.32134377	      9.23204164	    -11.19599350	     -0.15197315	     -7.55849991	      2.19189120	      2.47916596	     47.53483814	    -15.30517443	     -8.94631718	     89.31319756	     44.65272082	      0.00000000	      0.00000000	      5.75767316	    -10.63690625	     -0.30692615	     36.39900525	     45.54157901	      0.00000000	      0.00000000
     40.86800000	     -5.41876997	     -4.61877048	      4.23840976	      0.90589173	      0.92661154	      0.45638770	      1.60059463	     -2.21882112	    -11.76881290	     24.92813925	     24.92813925	     13.32028338	     -5.09712520	     -7.18947138	     23.30756132	     -4.38460528	      2.03205009	     24.09070287	     24.09070287	      9.43375618	    -11.59264938	      0.15779740	     -7.40782479	      2.30046509	      2.65613665	     45.35587529	    -15.08251846	     -9.73523007	     87.85725611	     44.73161996	      0.00000000	      0.00000000	      7.56502861	    -10.63803449	     -0.58594830	     36.38326714	     45.61088833	      0.00000000	      0.00000000
